<svg xmlns="http://www.w3.org/2000/svg" viewBox="0 0 256 256">
  <defs>
    <linearGradient id="shell" x1="32" y1="20" x2="224" y2="236" gradientUnits="userSpaceOnUse">
      <stop stop-color="#17243A"/>
      <stop offset="1" stop-color="#0B1220"/>
    </linearGradient>
    <linearGradient id="terminal" x1="98" y1="42" x2="218" y2="214" gradientUnits="userSpaceOnUse">
      <stop stop-color="#213653"/>
      <stop offset="1" stop-color="#132235"/>
    </linearGradient>
    <linearGradient id="prompt" x1="112" y1="85" x2="204" y2="167" gradientUnits="userSpaceOnUse">
      <stop stop-color="#78D7FF"/>
      <stop offset="1" stop-color="#4B91FF"/>
    </linearGradient>
    <filter id="shadow" x="-20%" y="-20%" width="140%" height="140%">
      <feDropShadow dx="0" dy="8" stdDeviation="10" flood-color="#020617" flood-opacity=".42"/>
    </filter>
  </defs>

  <rect x="8" y="8" width="240" height="240" rx="52" fill="url(#shell)" filter="url(#shadow)"/>
  <rect x="24" y="28" width="58" height="200" rx="20" fill="#0A1322" stroke="#2A405E" stroke-width="3"/>
  <path d="M53 68v120" stroke="#304968" stroke-width="5" stroke-linecap="round"/>
  <circle cx="53" cy="68" r="12" fill="#F4C978"/>
  <circle cx="53" cy="128" r="12" fill="#64C8FF"/>
  <circle cx="53" cy="188" r="12" fill="#8BE0B0"/>
  <circle cx="53" cy="68" r="4" fill="#FFF2C7"/>
  <circle cx="53" cy="128" r="4" fill="#DDF5FF"/>
  <circle cx="53" cy="188" r="4" fill="#E3FFEE"/>

  <rect x="94" y="28" width="138" height="200" rx="28" fill="url(#terminal)" stroke="#345177" stroke-width="3"/>
  <circle cx="120" cy="55" r="6" fill="#F4C978"/>
  <circle cx="140" cy="55" r="6" fill="#64C8FF" opacity=".85"/>
  <circle cx="160" cy="55" r="6" fill="#8BE0B0" opacity=".8"/>
  <path d="M119 92l33 34-33 34" fill="none" stroke="url(#prompt)" stroke-width="16" stroke-linecap="round" stroke-linejoin="round"/>
  <rect x="158" y="151" width="47" height="14" rx="7" fill="#F4C978"/>
  <path d="M196 91l6 12 13 2-9 9 2 13-12-6-12 6 2-13-9-9 13-2 6-12z" fill="#78D7FF" opacity=".9"/>
</svg>
